<svg xmlns="http://www.w3.org/2000/svg" width="143" height="139" viewBox="0 0 143 139">
  <g transform="translate(-1399.5 -160)">
    <path id="Polygon_1" data-name="Polygon 1" d="M71.5,0l2.867,67.185,54.472-39.654-50.9,44.124L143,89.391,76.666,77.228,103.32,139,71.5,79.709,39.68,139,66.334,77.228,0,89.391,65.058,71.655l-50.9-44.124L68.633,67.185Z" transform="translate(1399.5 160)" fill="rgba(255,255,255,0.92)"/>
    <path id="Polygon_1_-_Kontur" data-name="Polygon 1 - Kontur" d="M71.5,23.456,69.553,69.091,32.588,42.182,67.129,72.127,23,84.157l44.992-8.25-18.1,41.948L71.5,77.594l21.607,40.261-18.1-41.948L120,84.157,75.871,72.127l34.541-29.945L73.447,69.091,71.5,23.456M71.5,0l2.867,67.185,54.472-39.654-50.9,44.124L143,89.391,76.666,77.228,103.32,139,71.5,79.709,39.679,139,66.334,77.228,0,89.391,65.058,71.655l-50.9-44.124L68.633,67.185Z" transform="translate(1399.5 160)" fill="#fff"/>
  </g>
</svg>
